<svg width="83" height="67" viewBox="0 0 83 67" fill="none" xmlns="http://www.w3.org/2000/svg">
<path d="M14.415 65H16.005C17.15 65 17.935 64.31 17.935 63.25C17.935 62.19 17.15 61.5 16.005 61.5H14.415V65ZM15.225 64.335V62.165H15.965C16.66 62.165 17.115 62.58 17.115 63.25C17.115 63.92 16.66 64.335 15.965 64.335H15.225ZM18.8809 61.935C19.1709 61.935 19.3659 61.745 19.3659 61.485C19.3659 61.245 19.1709 61.065 18.8809 61.065C18.5909 61.065 18.3959 61.255 18.3959 61.5C18.3959 61.745 18.5909 61.935 18.8809 61.935ZM18.4909 65H19.2709V62.31H18.4909V65ZM22.0298 62.31V62.655C21.8248 62.395 21.5148 62.27 21.1398 62.27C20.3948 62.27 19.7948 62.785 19.7948 63.57C19.7948 64.355 20.3948 64.87 21.1398 64.87C21.4898 64.87 21.7848 64.76 21.9898 64.535V64.65C21.9898 65.135 21.7498 65.385 21.1998 65.385C20.8548 65.385 20.4798 65.265 20.2498 65.08L19.9398 65.64C20.2548 65.885 20.7498 66.01 21.2598 66.01C22.2298 66.01 22.7698 65.55 22.7698 64.55V62.31H22.0298ZM21.2948 64.23C20.8848 64.23 20.5848 63.965 20.5848 63.57C20.5848 63.175 20.8848 62.91 21.2948 62.91C21.7048 62.91 21.9998 63.175 21.9998 63.57C21.9998 63.965 21.7048 64.23 21.2948 64.23ZM23.8857 61.935C24.1757 61.935 24.3707 61.745 24.3707 61.485C24.3707 61.245 24.1757 61.065 23.8857 61.065C23.5957 61.065 23.4007 61.255 23.4007 61.5C23.4007 61.745 23.5957 61.935 23.8857 61.935ZM23.4957 65H24.2757V62.31H23.4957V65ZM26.5246 64.32C26.4396 64.385 26.3246 64.42 26.2096 64.42C25.9996 64.42 25.8746 64.295 25.8746 64.065V62.97H26.5446V62.37H25.8746V61.715H25.0946V62.37H24.6796V62.97H25.0946V64.075C25.0946 64.715 25.4646 65.04 26.0996 65.04C26.3396 65.04 26.5746 64.985 26.7346 64.87L26.5246 64.32ZM28.2575 62.27C27.8275 62.27 27.3925 62.385 27.0975 62.595L27.3775 63.14C27.5725 62.985 27.8675 62.89 28.1525 62.89C28.5725 62.89 28.7725 63.085 28.7725 63.42H28.1525C27.3325 63.42 26.9975 63.75 26.9975 64.225C26.9975 64.69 27.3725 65.04 28.0025 65.04C28.3975 65.04 28.6775 64.91 28.8225 64.665V65H29.5525V63.465C29.5525 62.65 29.0775 62.27 28.2575 62.27ZM28.1975 64.515C27.9225 64.515 27.7575 64.385 27.7575 64.19C27.7575 64.01 27.8725 63.875 28.2375 63.875H28.7725V64.15C28.6825 64.395 28.4575 64.515 28.1975 64.515ZM30.2584 65H31.0384V61.29H30.2584V65ZM36.3484 64.565L35.9384 64.185C36.0884 63.96 36.1934 63.69 36.2584 63.39L35.6334 63.195C35.5934 63.4 35.5334 63.585 35.4584 63.74L34.8184 63.145C35.2934 62.885 35.5034 62.62 35.5034 62.26C35.5034 61.765 35.1034 61.455 34.4984 61.455C33.8384 61.455 33.4084 61.805 33.4084 62.315C33.4084 62.565 33.5134 62.79 33.7684 63.055C33.2334 63.355 32.9984 63.66 32.9984 64.1C32.9984 64.66 33.5634 65.06 34.3334 65.06C34.7834 65.06 35.1834 64.92 35.5034 64.67L35.9234 65.06L36.3484 64.565ZM34.4984 61.985C34.7234 61.985 34.8434 62.105 34.8434 62.275C34.8434 62.435 34.7334 62.565 34.3884 62.75C34.1734 62.54 34.1184 62.44 34.1184 62.305C34.1184 62.12 34.2584 61.985 34.4984 61.985ZM34.3884 64.45C34.0034 64.45 33.7634 64.27 33.7634 64.015C33.7634 63.8 33.8784 63.64 34.1984 63.455L35.0434 64.245C34.8534 64.38 34.6284 64.45 34.3884 64.45ZM39.4371 65.06C40.4371 65.06 40.9221 64.56 40.9221 63.975C40.9221 62.69 38.8871 63.135 38.8871 62.49C38.8871 62.27 39.0721 62.09 39.5521 62.09C39.8621 62.09 40.1971 62.18 40.5221 62.365L40.7721 61.75C40.4471 61.545 39.9971 61.44 39.5571 61.44C38.5621 61.44 38.0821 61.935 38.0821 62.53C38.0821 63.83 40.1171 63.38 40.1171 64.035C40.1171 64.25 39.9221 64.41 39.4421 64.41C39.0221 64.41 38.5821 64.26 38.2871 64.045L38.0121 64.655C38.3221 64.895 38.8821 65.06 39.4371 65.06ZM43.3505 62.31V63.64C43.3505 64.135 43.0905 64.365 42.7305 64.365C42.3855 64.365 42.1855 64.165 42.1855 63.715V62.31H41.4055V63.83C41.4055 64.66 41.8805 65.04 42.5555 65.04C42.8855 65.04 43.1855 64.915 43.3905 64.68V65H44.1305V62.31H43.3505ZM45.7582 65.04C46.5632 65.04 47.0282 64.685 47.0282 64.185C47.0282 63.125 45.4032 63.57 45.4032 63.11C45.4032 62.97 45.5532 62.86 45.9032 62.86C46.1482 62.86 46.4132 62.91 46.6782 63.06L46.9382 62.505C46.6832 62.355 46.2732 62.27 45.9032 62.27C45.1182 62.27 44.6582 62.63 44.6582 63.14C44.6582 64.215 46.2832 63.765 46.2832 64.205C46.2832 64.355 46.1482 64.45 45.7882 64.45C45.4582 64.45 45.0932 64.345 44.8532 64.19L44.5932 64.75C44.8432 64.915 45.3032 65.04 45.7582 65.04ZM49.0344 64.32C48.9494 64.385 48.8344 64.42 48.7194 64.42C48.5094 64.42 48.3844 64.295 48.3844 64.065V62.97H49.0544V62.37H48.3844V61.715H47.6044V62.37H47.1894V62.97H47.6044V64.075C47.6044 64.715 47.9744 65.04 48.6094 65.04C48.8494 65.04 49.0844 64.985 49.2444 64.87L49.0344 64.32ZM50.7673 62.27C50.3373 62.27 49.9023 62.385 49.6073 62.595L49.8873 63.14C50.0823 62.985 50.3773 62.89 50.6623 62.89C51.0823 62.89 51.2823 63.085 51.2823 63.42H50.6623C49.8423 63.42 49.5073 63.75 49.5073 64.225C49.5073 64.69 49.8823 65.04 50.5123 65.04C50.9073 65.04 51.1873 64.91 51.3323 64.665V65H52.0623V63.465C52.0623 62.65 51.5873 62.27 50.7673 62.27ZM50.7073 64.515C50.4323 64.515 50.2673 64.385 50.2673 64.19C50.2673 64.01 50.3823 63.875 50.7473 63.875H51.2823V64.15C51.1923 64.395 50.9673 64.515 50.7073 64.515ZM53.1582 61.935C53.4482 61.935 53.6432 61.745 53.6432 61.485C53.6432 61.245 53.4482 61.065 53.1582 61.065C52.8682 61.065 52.6732 61.255 52.6732 61.5C52.6732 61.745 52.8682 61.935 53.1582 61.935ZM52.7682 65H53.5482V62.31H52.7682V65ZM55.9071 62.27C55.5421 62.27 55.2271 62.395 55.0171 62.625V62.31H54.2721V65H55.0521V63.67C55.0521 63.175 55.3221 62.945 55.6971 62.945C56.0421 62.945 56.2421 63.145 56.2421 63.58V65H57.0221V63.46C57.0221 62.64 56.5421 62.27 55.9071 62.27ZM58.8141 62.27C58.3841 62.27 57.9491 62.385 57.6541 62.595L57.9341 63.14C58.1291 62.985 58.4241 62.89 58.7091 62.89C59.1291 62.89 59.3291 63.085 59.3291 63.42H58.7091C57.8891 63.42 57.5541 63.75 57.5541 64.225C57.5541 64.69 57.9291 65.04 58.5591 65.04C58.9541 65.04 59.2341 64.91 59.3791 64.665V65H60.1091V63.465C60.1091 62.65 59.6341 62.27 58.8141 62.27ZM58.7541 64.515C58.4791 64.515 58.3141 64.385 58.3141 64.19C58.3141 64.01 58.4291 63.875 58.7941 63.875H59.3291V64.15C59.2391 64.395 59.0141 64.515 58.7541 64.515ZM62.4051 62.27C62.0701 62.27 61.7951 62.375 61.5951 62.595V61.29H60.8151V65H61.5601V64.69C61.7551 64.925 62.0451 65.04 62.4051 65.04C63.1601 65.04 63.7451 64.5 63.7451 63.655C63.7451 62.81 63.1601 62.27 62.4051 62.27ZM62.2701 64.4C61.8801 64.4 61.5851 64.12 61.5851 63.655C61.5851 63.19 61.8801 62.91 62.2701 62.91C62.6601 62.91 62.9551 63.19 62.9551 63.655C62.9551 64.12 62.6601 64.4 62.2701 64.4ZM64.2672 65H65.0472V61.29H64.2672V65ZM68.4061 63.665C68.4061 62.8 67.7961 62.27 67.0061 62.27C66.1861 62.27 65.5711 62.85 65.5711 63.655C65.5711 64.455 66.1761 65.04 67.1061 65.04C67.5911 65.04 67.9661 64.89 68.2161 64.605L67.8011 64.155C67.6161 64.33 67.4111 64.415 67.1261 64.415C66.7161 64.415 66.4311 64.21 66.3561 63.875H68.3911C68.3961 63.81 68.4061 63.725 68.4061 63.665ZM67.0111 62.86C67.3611 62.86 67.6161 63.08 67.6711 63.42H66.3461C66.4011 63.075 66.6561 62.86 67.0111 62.86Z" fill="#868080"/>
<path d="M8.272 57H10.312L6.556 48.6H4.636L0.892 57H2.884L3.628 55.2H7.528L8.272 57ZM4.252 53.724L5.584 50.508L6.916 53.724H4.252ZM15.3197 50.544L13.4717 54.936L11.6837 50.544H9.75166L12.4637 57H14.3957L17.1197 50.544H15.3197ZM24.0318 53.796C24.0318 51.72 22.5678 50.448 20.6718 50.448C18.7038 50.448 17.2278 51.84 17.2278 53.772C17.2278 55.692 18.6798 57.096 20.9118 57.096C22.0758 57.096 22.9758 56.736 23.5758 56.052L22.5798 54.972C22.1358 55.392 21.6438 55.596 20.9598 55.596C19.9758 55.596 19.2918 55.104 19.1118 54.3H23.9958C24.0078 54.144 24.0318 53.94 24.0318 53.796ZM20.6838 51.864C21.5238 51.864 22.1358 52.392 22.2678 53.208H19.0878C19.2198 52.38 19.8318 51.864 20.6838 51.864ZM29.2021 50.448C28.3261 50.448 27.5701 50.748 27.0661 51.3V50.544H25.2781V57H27.1501V53.808C27.1501 52.62 27.7981 52.068 28.6981 52.068C29.5261 52.068 30.0061 52.548 30.0061 53.592V57H31.8781V53.304C31.8781 51.336 30.7261 50.448 29.2021 50.448ZM34.5109 49.644C35.2069 49.644 35.6749 49.188 35.6749 48.564C35.6749 47.988 35.2069 47.556 34.5109 47.556C33.8149 47.556 33.3469 48.012 33.3469 48.6C33.3469 49.188 33.8149 49.644 34.5109 49.644ZM33.5749 57H35.4469V50.544H33.5749V57ZM38.9723 51.396V50.544H37.1843V57H39.0563V53.952C39.0563 52.716 39.7403 52.152 40.7723 52.152C40.9163 52.152 41.0363 52.164 41.1923 52.176V50.448C40.1963 50.448 39.4283 50.772 38.9723 51.396ZM51.5587 55.128C51.0667 55.392 50.5747 55.488 50.0467 55.488C48.4387 55.488 47.3227 54.372 47.3227 52.8C47.3227 51.204 48.4387 50.112 50.0707 50.112C50.9227 50.112 51.6307 50.412 52.2427 51.06L53.4907 49.908C52.6747 48.96 51.4507 48.456 49.9747 48.456C47.2987 48.456 45.3547 50.268 45.3547 52.8C45.3547 55.332 47.2987 57.144 49.9387 57.144C51.1387 57.144 52.4107 56.772 53.3347 56.076V52.668H51.5587V55.128ZM56.7965 51.396V50.544H55.0085V57H56.8805V53.952C56.8805 52.716 57.5645 52.152 58.5965 52.152C58.7405 52.152 58.8605 52.164 59.0165 52.176V50.448C58.0205 50.448 57.2525 50.772 56.7965 51.396ZM66.395 53.796C66.395 51.72 64.931 50.448 63.035 50.448C61.067 50.448 59.591 51.84 59.591 53.772C59.591 55.692 61.043 57.096 63.275 57.096C64.439 57.096 65.339 56.736 65.939 56.052L64.943 54.972C64.499 55.392 64.007 55.596 63.323 55.596C62.339 55.596 61.655 55.104 61.475 54.3H66.359C66.371 54.144 66.395 53.94 66.395 53.796ZM63.047 51.864C63.887 51.864 64.499 52.392 64.631 53.208H61.451C61.583 52.38 62.195 51.864 63.047 51.864ZM73.9653 53.796C73.9653 51.72 72.5013 50.448 70.6053 50.448C68.6373 50.448 67.1613 51.84 67.1613 53.772C67.1613 55.692 68.6133 57.096 70.8453 57.096C72.0093 57.096 72.9093 56.736 73.5093 56.052L72.5133 54.972C72.0693 55.392 71.5773 55.596 70.8933 55.596C69.9093 55.596 69.2253 55.104 69.0453 54.3H73.9293C73.9413 54.144 73.9653 53.94 73.9653 53.796ZM70.6173 51.864C71.4573 51.864 72.0693 52.392 72.2013 53.208H69.0213C69.1533 52.38 69.7653 51.864 70.6173 51.864ZM79.1357 50.448C78.2597 50.448 77.5037 50.748 76.9997 51.3V50.544H75.2117V57H77.0837V53.808C77.0837 52.62 77.7317 52.068 78.6317 52.068C79.4597 52.068 79.9397 52.548 79.9397 53.592V57H81.8117V53.304C81.8117 51.336 80.6597 50.448 79.1357 50.448Z" fill="#135566"/>
<path d="M48.9372 41.0715C48.1242 41.5409 39.4539 34.6596 40.3718 26.2358C40.9459 20.9678 43.8844 17.6986 46.6617 15.9086C47.5357 15.3452 48.1746 16.3649 47.5306 17.1813C38.806 28.2403 49.5916 39.2823 49.7122 40.0669C49.8171 40.7492 49.3162 40.9456 48.9372 41.0715Z" fill="#00B085"/>
<path d="M38.7841 1.35412C37.3338 0.867035 25.6653 14.7869 29.8248 28.0301C32.9657 38.0303 40.6892 42.2092 46.1758 43.5022C47.1427 43.73 47.5728 42.574 46.7994 41.9506C24.6785 24.1199 40.4051 4.07741 40.3446 2.71441C40.2943 1.58261 39.4304 1.43183 38.7841 1.35412Z" fill="#007C87"/>
<ellipse cx="50.3432" cy="28.4238" rx="3" ry="5.5" fill="#53C872"/>
</svg>
